<svg xmlns="http://www.w3.org/2000/svg" viewBox="0 0 47.62 47.62"><defs><style>.a9f60541-af5c-43b1-98a1-0f0d7b479bc2{fill:#00263a;}</style></defs><g id="a185d77b-b809-4916-9c03-ce70842d19f2" data-name="Layer 2"><g id="edb25045-6642-49b5-a5ad-e317fcda195b" data-name="Layer 1"><path class="a9f60541-af5c-43b1-98a1-0f0d7b479bc2" d="M46.22,27.32c.19-1.23,1.21-2.28,1.4-3.51-.19-1.23-1.22-2.36-1.42-3.59s.45-2.54.26-3.77c-.57-1.1-1.9-1.87-2.46-3s-.36-2.56-.93-3.66c-.87-.88-2.38-1.2-3.25-2.08s-1.14-2.31-2-3.19c-1.11-.57-2.64-.4-3.74-1s-1.8-1.85-2.9-2.41c-1.23-.2-2.63.43-3.85.23S25,.19,23.81,0c-1.23.19-2.36,1.22-3.59,1.42S17.68,1,16.45,1.17c-1.1.56-1.87,1.89-3,2.45s-2.56.36-3.66.93c-.88.88-1.2,2.38-2.08,3.25s-2.31,1.14-3.19,2c-.57,1.1-.4,2.63-1,3.73s-1.85,1.8-2.41,2.9c-.2,1.23.43,2.63.23,3.86S.19,22.58,0,23.81C.19,25,1.22,26.17,1.42,27.4S1,29.94,1.17,31.17c.56,1.1,1.89,1.87,2.45,3s.36,2.55.93,3.66c.88.87,2.38,1.19,3.26,2.07s1.13,2.32,2,3.19c1.1.57,2.63.4,3.73,1s1.8,1.85,2.9,2.42c1.23.19,2.63-.44,3.86-.24s2.27,1.21,3.5,1.4c1.23-.19,2.37-1.22,3.59-1.42s2.54.45,3.77.26c1.1-.57,1.87-1.9,3-2.46s2.55-.36,3.66-.93c.87-.87,1.19-2.38,2.07-3.25s2.32-1.14,3.19-2c.57-1.11.4-2.64,1-3.74s1.85-1.8,2.42-2.9c.19-1.23-.44-2.63-.24-3.85M23.81,44.52A20.71,20.71,0,1,1,44.52,23.81,20.75,20.75,0,0,1,23.81,44.52"/><path class="a9f60541-af5c-43b1-98a1-0f0d7b479bc2" d="M12.63,31.71c-.05-.45-.42-.59-1-.66-.35,0-.44-.08-.45-.19h0c0-.09.06-.17.23-.18a1.17,1.17,0,0,1,.7.16l.28-.51a1.55,1.55,0,0,0-1-.21c-.58.06-.9.42-.85.87h0c.05.49.47.59,1,.66.34,0,.43.09.44.19h0c0,.1-.08.17-.26.19a1.25,1.25,0,0,1-.82-.21l-.32.49a1.69,1.69,0,0,0,1.17.28c.59-.06.95-.4.9-.89Z"/><polygon class="a9f60541-af5c-43b1-98a1-0f0d7b479bc2" points="14.78 30.44 14.73 29.85 12.61 30.03 12.66 30.62 13.38 30.56 13.54 32.39 14.21 32.33 14.06 30.5 14.78 30.44"/><path class="a9f60541-af5c-43b1-98a1-0f0d7b479bc2" d="M15.59,29.78l-.87,2.51.7,0,.15-.45.93-.06.21.42.72,0-1.2-2.38Zm.14,1.47.23-.7.31.67Z"/><path class="a9f60541-af5c-43b1-98a1-0f0d7b479bc2" d="M19.74,30.41h0a.85.85,0,0,0-.24-.56,1.09,1.09,0,0,0-.81-.23l-1.14.05.1,2.43.67,0,0-.73.3,0,.52.72.77,0-.61-.83a.78.78,0,0,0,.47-.77m-1,.38-.45,0,0-.59.45,0c.22,0,.37.09.37.28h0c0,.17-.12.29-.34.3"/><polygon class="a9f60541-af5c-43b1-98a1-0f0d7b479bc2" points="22.9 31.08 22.89 30.52 21.74 30.54 21.74 30.13 23.01 30.11 23 29.52 21.05 29.55 21.09 31.98 21.76 31.97 21.75 31.1 22.9 31.08"/><path class="a9f60541-af5c-43b1-98a1-0f0d7b479bc2" d="M23.9,29.5l-1,2.44h.71l.17-.44h.94l.18.44h.72l-1-2.46Zm0,1.49.28-.69.27.69Z"/><path class="a9f60541-af5c-43b1-98a1-0f0d7b479bc2" d="M26.88,30.12a.69.69,0,0,1,.53.3l.51-.38a1.18,1.18,0,0,0-1-.53,1.23,1.23,0,0,0-1.3,1.23h0a1.27,1.27,0,0,0,2.3.76l-.49-.37a.67.67,0,0,1-.56.28.6.6,0,0,1-.56-.66h0a.6.6,0,0,1,.59-.63"/><rect class="a9f60541-af5c-43b1-98a1-0f0d7b479bc2" x="27.36" y="30.49" width="2.43" height="0.67" transform="translate(-3.36 58.16) rotate(-87.73)"/><polygon class="a9f60541-af5c-43b1-98a1-0f0d7b479bc2" points="30.1 29.68 29.43 29.65 29.3 32.07 31.15 32.17 31.18 31.58 30 31.52 30.1 29.68"/><rect class="a9f60541-af5c-43b1-98a1-0f0d7b479bc2" x="30.65" y="30.67" width="2.43" height="0.67" transform="translate(-1.26 60.67) rotate(-86.06)"/><polygon class="a9f60541-af5c-43b1-98a1-0f0d7b479bc2" points="32.58 30.43 33.3 30.49 33.14 32.32 33.81 32.38 33.97 30.55 34.7 30.61 34.75 30.02 32.63 29.84 32.58 30.43"/><polygon class="a9f60541-af5c-43b1-98a1-0f0d7b479bc2" points="36.03 31.04 35.62 30.11 34.86 30.03 35.62 31.64 35.52 32.54 36.19 32.61 36.29 31.7 37.37 30.3 36.62 30.21 36.03 31.04"/><path class="a9f60541-af5c-43b1-98a1-0f0d7b479bc2" d="M26.48,22a.65.65,0,0,1,.78,0,.62.62,0,0,0,.15-.2.9.9,0,0,0-1.08,0,.62.62,0,0,0,.15.2"/><path class="a9f60541-af5c-43b1-98a1-0f0d7b479bc2" d="M26,22.38a.61.61,0,0,0,0,.14.87.87,0,0,0,.54.81.7.7,0,0,0,.11-.23.61.61,0,0,1-.4-.58.49.49,0,0,1,0-.12.71.71,0,0,0-.25,0"/><path class="a9f60541-af5c-43b1-98a1-0f0d7b479bc2" d="M25.74,22.4a.65.65,0,0,1,.83.14l0,.06.08,0a.06.06,0,0,1,0,0,.21.21,0,0,1,.13-.18v-.1h-.07a.65.65,0,0,1-.44-.33.64.64,0,0,1,.41-.95v0a.94.94,0,0,0-.78.92c0,.05,0,.1,0,.14l-.12.06a.94.94,0,0,0-.41,1.14l0,0a.66.66,0,0,1,.3-.75"/><path class="a9f60541-af5c-43b1-98a1-0f0d7b479bc2" d="M21.49,21.29h0c0-.27-.22-.41-.64-.41H20v.83h.87c.43,0,.64-.14.64-.41"/><path class="a9f60541-af5c-43b1-98a1-0f0d7b479bc2" d="M21,22.93H20v.89h1c.44,0,.66-.18.66-.43v0c0-.26-.21-.44-.65-.44"/><path class="a9f60541-af5c-43b1-98a1-0f0d7b479bc2" d="M27.34,23.53a.76.76,0,0,1-.24-.23.66.66,0,0,1-.05-.55s0,0,0-.05l-.07,0a.19.19,0,0,1-.26,0l-.07,0s0,0,0,.05a.66.66,0,0,1-.05.55.76.76,0,0,1-.24.23.65.65,0,0,1-.8-.11l0,0a.94.94,0,0,0,1.19.21l.11-.08.11.08a1,1,0,0,0,1.19-.21l0,0a.65.65,0,0,1-.8.11"/><path class="a9f60541-af5c-43b1-98a1-0f0d7b479bc2" d="M35.78,19.53s0,0-.06,0h-.06v.09h.05s.07,0,.07,0"/><path class="a9f60541-af5c-43b1-98a1-0f0d7b479bc2" d="M23.81,8.81A15,15,0,0,0,9.56,28.51a113.07,113.07,0,0,1,14.25-.88,113.11,113.11,0,0,1,14.25.89A15,15,0,0,0,23.81,8.81m3.76,4.64,1.54.54,1-1.3,0,1.63,1.54.53L30,15.32,30,17l-.93-1.34-1.56.48,1-1.3Zm-4.4-.75.64-2,.64,2h2.07l-1.67,1.22.64,2-1.68-1.21-1.67,1.21.64-2L21.1,12.7Zm-5.66.09,1,1.29L20,13.54l-.92,1.34,1,1.29-1.56-.46-.92,1.34-.05-1.63L16,15l1.54-.55Zm.14,11.77a4.15,4.15,0,0,1-2.64.9,3.15,3.15,0,0,1-3.36-3.1v0A3.13,3.13,0,0,1,15,19.23a3.72,3.72,0,0,1,2.5.9l-1.12,1.35A2,2,0,0,0,15,21a1.33,1.33,0,0,0-1.34,1.41v0a1.36,1.36,0,0,0,1.42,1.42,1.45,1.45,0,0,0,.69-.13v-.6h-1V21.8h2.9Zm3.7.77H18v-6h3.34a2.26,2.26,0,0,1,1.7.53,1.26,1.26,0,0,1,.37.93v0a1.4,1.4,0,0,1-1.07,1.37c.77.22,1.27.63,1.27,1.45v0c0,.95-.79,1.65-2.3,1.65m6.86,0-.32-.8H25.8l-.3.8H23.36l2.52-6h2l2.52,6Zm4.61.13a3,3,0,0,1-3.09-3.1v0a3.08,3.08,0,0,1,3.17-3.11,2.94,2.94,0,0,1,2.71,1.55l-1.65,1A1.16,1.16,0,0,0,32.88,21a1.19,1.19,0,0,0-1.12,1.31h0a1.19,1.19,0,0,0,1.12,1.33A1.22,1.22,0,0,0,34,22.92l1.65.93a3,3,0,0,1-2.83,1.61m2.89-5.6a.27.27,0,1,1,.26-.27.26.26,0,0,1-.26.27"/><path class="a9f60541-af5c-43b1-98a1-0f0d7b479bc2" d="M35.71,19.38a.2.2,0,0,0-.2.21.2.2,0,1,0,.4,0,.2.2,0,0,0-.2-.21m.07.37-.08-.13h0v.13h0v-.3h.11c.07,0,.11,0,.11.09s0,.07-.08.08l.08.13Z"/><path class="a9f60541-af5c-43b1-98a1-0f0d7b479bc2" d="M27.81,21.83a.94.94,0,0,0-.78-.92v0a.66.66,0,0,1,.41.95.64.64,0,0,1-.45.33h-.06v.1a.21.21,0,0,1,.13.18.06.06,0,0,1,0,0l.08,0,0-.06A.65.65,0,0,1,28,22.4a.66.66,0,0,1,.3.75l0,0A.94.94,0,0,0,27.92,22L27.8,22s0-.09,0-.14"/><path class="a9f60541-af5c-43b1-98a1-0f0d7b479bc2" d="M27.09,23.1a.7.7,0,0,0,.11.23.87.87,0,0,0,.54-.81.61.61,0,0,0,0-.14.71.71,0,0,0-.25,0,.49.49,0,0,1,0,.12.61.61,0,0,1-.4.58"/><path class="a9f60541-af5c-43b1-98a1-0f0d7b479bc2" d="M12.34,10.37a.64.64,0,0,0,.91.12.63.63,0,0,0,.08-.91h0a.64.64,0,0,0-.91-.12.63.63,0,0,0-.09.9Z"/><polygon class="a9f60541-af5c-43b1-98a1-0f0d7b479bc2" points="7.65 17.11 7.87 16.59 7.13 16.58 7.65 17.11"/><path class="a9f60541-af5c-43b1-98a1-0f0d7b479bc2" d="M6.41,20.74h0A.63.63,0,1,0,6.22,22h0A.63.63,0,0,0,7,21.45a.62.62,0,0,0-.56-.71"/><path class="a9f60541-af5c-43b1-98a1-0f0d7b479bc2" d="M10.26,11.82h0c-.11-.09-.24-.06-.36.09l-.3.35.34.29.27-.33c.14-.15.17-.29,0-.4"/><path class="a9f60541-af5c-43b1-98a1-0f0d7b479bc2" d="M11,12.28h0c-.1-.1-.24-.07-.39.11l-.35.41.35.3.36-.42c.13-.16.16-.3,0-.4"/><path class="a9f60541-af5c-43b1-98a1-0f0d7b479bc2" d="M35.28,9.94h0c.12-.16.08-.32-.1-.46l-.36-.29-.37.48.37.29a.3.3,0,0,0,.46,0"/><path class="a9f60541-af5c-43b1-98a1-0f0d7b479bc2" d="M39,16.15a.61.61,0,0,0,.86.27h0a.64.64,0,1,0-.57-1.14h0a.63.63,0,0,0-.3.86"/><path class="a9f60541-af5c-43b1-98a1-0f0d7b479bc2" d="M15.06,8.08h0c-.1-.17-.27-.19-.47-.08l-.39.24.31.52.4-.24a.31.31,0,0,0,.15-.44"/><polygon class="a9f60541-af5c-43b1-98a1-0f0d7b479bc2" points="22.93 5.66 22.69 6.35 23.24 6.33 22.93 5.66"/><path class="a9f60541-af5c-43b1-98a1-0f0d7b479bc2" d="M25.92,6.27h0a.6.6,0,0,0-.57-.68l-.36,0-.11,1.26.35,0a.6.6,0,0,0,.69-.57"/><path class="a9f60541-af5c-43b1-98a1-0f0d7b479bc2" d="M32.38,9.12a.62.62,0,0,0,.87-.25h0a.63.63,0,1,0-1.09-.65h0a.64.64,0,0,0,.22.89"/><path class="a9f60541-af5c-43b1-98a1-0f0d7b479bc2" d="M7.35,18.62h0c-.14,0-.25,0-.32.27l-.14.51.44.13L7.48,19c.06-.2,0-.34-.13-.38"/><path class="a9f60541-af5c-43b1-98a1-0f0d7b479bc2" d="M6.51,18.5h0c-.14,0-.24.05-.29.23l-.13.44.43.12.12-.41c.05-.19,0-.33-.13-.38"/><path class="a9f60541-af5c-43b1-98a1-0f0d7b479bc2" d="M22.54,38.27a.58.58,0,0,0-.32.06,1.17,1.17,0,0,0-.51,1h0a1.17,1.17,0,0,0,.33,1,.58.58,0,0,0,.34.14c.45,0,.77-.4.82-1v0c.05-.64-.21-1.14-.66-1.17"/><path class="a9f60541-af5c-43b1-98a1-0f0d7b479bc2" d="M23.81,3.75A20.06,20.06,0,1,0,43.87,23.81,20.1,20.1,0,0,0,23.81,3.75m18.45,20-.35-.28a.81.81,0,0,0,.2-.55.62.62,0,0,0-.68-.57h0a.63.63,0,0,0-.63.65.8.8,0,0,0,.28.54l-.28.31a1.09,1.09,0,0,1-.42-.84,1.05,1.05,0,0,1,1-1.14h0a1.07,1.07,0,0,1,1.15,1,1.11,1.11,0,0,1-.28.85m-1.71-8.37a1.07,1.07,0,0,1-.46,1.48h0a1.12,1.12,0,0,1-1-2h0a1.08,1.08,0,0,1,1.47.51M37.82,13a1.13,1.13,0,0,1,1.72,1.15l-.45-.05a.75.75,0,0,0-.11-.57.61.61,0,0,0-.88-.13h0a.63.63,0,0,0-.19.88.77.77,0,0,0,.51.31l-.07.41a1.11,1.11,0,0,1-.52-2ZM36.34,9.87l.38.38-.24,1,1-.24.38.37-1.47.32-.59.59-.33-.32.59-.59Zm-.87-.7a.83.83,0,0,1,.35.55.65.65,0,0,1-.16.49h0a.66.66,0,0,1-.76.24l-.06.9L34.42,11l.06-.81L34.2,10l-.42.53-.36-.29,1.3-1.65ZM31.74,8a1.09,1.09,0,0,1,1.52-.38,1.07,1.07,0,0,1,.41,1.5h0A1.12,1.12,0,0,1,31.74,8ZM30.5,7.68c-.35-.27-.56-.48-.39-.87h0a.65.65,0,0,1,.92-.3,1.24,1.24,0,0,1,.62.55l-.36.23a1,1,0,0,0-.42-.41c-.17-.07-.28,0-.32.07h0c-.05.13,0,.21.32.43s.51.5.37.84h0a.66.66,0,0,1-1,.3,1.31,1.31,0,0,1-.69-.66L30,7.68a1,1,0,0,0,.48.48c.17.07.31,0,.35-.07h0c0-.11,0-.2-.29-.41m-.73-1.62-.65,2-.44-.14.65-2Zm-2.48-.65L27.52,7l.85-1.33.49.1L27.57,7.64l-.4-.09L26.8,5.3Zm-2.72-.32.81.07a1,1,0,0,1,1,1.14h0a1.05,1.05,0,0,1-1.2,1l-.82-.08Zm-1.87,0,.43,0,1,2.07-.49,0-.21-.46-.89,0-.17.48-.47,0Zm-3.6.58.21.9.62-1.1.54-.13-.62,1.07L21,7.4l-.54.13-.85-.72-.17.3.14.63-.45.1-.48-2Zm-1.82.55a1.16,1.16,0,0,1,.82,0l-.1.41a1,1,0,0,0-.59,0c-.16.06-.22.17-.19.27h0c0,.13.14.14.52.11s.71,0,.84.36h0c.15.39-.07.72-.49.88a1.33,1.33,0,0,1-1,0l.15-.4a.91.91,0,0,0,.67,0c.18-.06.26-.17.22-.29h0c0-.11-.13-.14-.49-.11s-.74,0-.88-.36h0a.66.66,0,0,1,.47-.85m-1.23.54.9,1.9-.42.19L15.63,7Zm-1.63.84a.89.89,0,0,1,.63-.13.71.71,0,0,1,.4.33h0a.64.64,0,0,1,0,.79l.82.39-.46.27L15,8.92l-.32.19.34.58-.39.23L13.59,8.11Zm-2.26,1.5a1.08,1.08,0,0,1,1.54.15h0a1.1,1.1,0,0,1-.2,1.55A1.08,1.08,0,0,1,12,10.67h0a1.09,1.09,0,0,1,.2-1.55m-1.27,1.16,1.47,1.5L12,12.1l-1.47-1.5ZM9.63,11.6a.73.73,0,0,1,.5-.3.49.49,0,0,1,.36.12h0a.51.51,0,0,1,.17.51.5.5,0,0,1,.64,0h0c.29.24.24.61-.07,1l-.65.76L9,12.34ZM7.58,14.48,9,15.34l.53-.9.37.21L9.16,16,7.35,14.88Zm-.87,1.68,2.3,0-.19.44H8.31L8,17.42l.35.37-.19.43L6.54,16.55ZM5.1,23.71l1.68,0v-1h.43l0,1.51-2.1,0Zm1.26,3h0a1.07,1.07,0,0,1-1.19-1,1.1,1.1,0,0,1,.2-.85l.38.25a.8.8,0,0,0-.16.57.64.64,0,0,0,.72.53h0a.63.63,0,0,0,.6-.7.76.76,0,0,0-.17-.42l-.3,0,.05.46-.4,0-.1-.9.91-.1a1.36,1.36,0,0,1,.43.86,1.05,1.05,0,0,1-1,1.21m1-5.17a1.07,1.07,0,0,1-1.22.95h0a1.09,1.09,0,0,1-.92-1.26,1.07,1.07,0,0,1,1.22-.95h0a1.08,1.08,0,0,1,.92,1.26m.48-2.41-.27,1-2-.57.27-.94a.76.76,0,0,1,.32-.48.48.48,0,0,1,.39,0h0a.49.49,0,0,1,.36.39.53.53,0,0,1,.61-.24h0c.37.11.47.46.34.92m12.41,19c0,.07,0,.15-.05.23h0a1.06,1.06,0,0,1-.24.46,2.15,2.15,0,0,1-1.08.61l-.81.26,1.59.5-.27.88-.71-.23-1.17-.37-1.19-.38,0,0,.24-.76,1.8-.65c.45-.17.65-.3.72-.54a.4.4,0,0,0-.31-.53.61.61,0,0,0-.33,0,2.4,2.4,0,0,0-.59.27l-.26-.4L17.35,37a1.91,1.91,0,0,1,1.53-.4,1.73,1.73,0,0,1,.31.07,1.38,1.38,0,0,1,1.09,1.46m4,1.43h0a1.94,1.94,0,0,1-2,2,2.2,2.2,0,0,1-.37-.06,2,2,0,0,1-1.34-2.18h0a2,2,0,0,1,1.74-2h.3a1.74,1.74,0,0,1,1.46.95l.06.12a2.37,2.37,0,0,1,.19,1.17m3.24,1.61-1.21.18-1.23.18v0L25,40.66l1.33-1.38c.33-.35.45-.56.42-.8a.4.4,0,0,0-.52-.34.58.58,0,0,0-.3.13,1.78,1.78,0,0,0-.42.51l-.41-.25-.44-.27a2,2,0,0,1,1.2-1,2.84,2.84,0,0,1,.31-.06,1.36,1.36,0,0,1,1.62.83,1.55,1.55,0,0,1,.05.23h0a1.43,1.43,0,0,1,0,.51,2.13,2.13,0,0,1-.7,1l-.62.59,1.66-.25.14.91Zm3.31-1-.92.31-.36-1L29,37.67l0-.06-.6.37-.4-.62-.09-.13.28-.19.74-.52.56-.19.21-.08,0,.07.5,1.42.33.95L31,40.08v0Zm7.18-5.32a103.22,103.22,0,0,0-14.25-1h0a98.92,98.92,0,0,0-14.24.94L8,28.72l1.29-.18a15.11,15.11,0,0,1-.75-4.73,15.31,15.31,0,1,1,29.87,4.75l1.29.17Zm1.46-16.36a.83.83,0,0,1,.59-1.16l1.14-.39.15.44-1.13.38c-.33.11-.44.33-.35.6a.44.44,0,0,0,.63.26l1.14-.38.14.44-1.12.38a.85.85,0,0,1-1.19-.57M40,19.74l2.06-.4.08.42L41,21l1.27-.24.08.45-2.06.39-.07-.38,1.12-1.25L40,20.19Zm2.46,6.12-1.66-.2-.13,1-.42-.05.18-1.5,2.09.25Zm.09-1.12-2.1-.08,0-.46,2.1.08Z"/></g></g></svg>