<svg xmlns="http://www.w3.org/2000/svg" viewBox="0 0 147.62 44.95"><defs><style>.ae0f7254-268f-480e-8c00-9db0c8ac4374{fill:#fff;}</style></defs><g id="e3d6aa16-9250-4cb6-89e6-0f9614be769d" data-name="Layer 2"><g id="b59c77ea-29ea-4930-9358-1bd46b191b31" data-name="Layer 1"><path class="ae0f7254-268f-480e-8c00-9db0c8ac4374" d="M18,16.57H0V22.5c0,5.46,1.15,10,3.43,13.57h4.3a2.87,2.87,0,0,0,0-5.73H4.43A2.28,2.28,0,0,1,2,28.24v-.3l0,0,4.76-1.58a3.24,3.24,0,0,1,2-1.75,4.49,4.49,0,0,1,1.42-.27h2.63v.51a3.61,3.61,0,0,1,1.86-.51h2.1v.4A3,3,0,0,1,14,27.88v.63A15.17,15.17,0,0,1,16.3,35.6a14.77,14.77,0,0,1-2,8.4A30.78,30.78,0,0,0,18,45ZM16.9,17.94A19.27,19.27,0,0,1,1.61,25.4H1.56v-.8h.05a19.39,19.39,0,0,0,3.23-.28A4.15,4.15,0,0,0,7.67,20v0l.8-.09v0a4.83,4.83,0,0,1-1.32,3.87,17.41,17.41,0,0,0,2.77-1.11A6.43,6.43,0,0,0,11.33,18V18l.81-.08V18a7.06,7.06,0,0,1-.71,3.86,18.35,18.35,0,0,0,4.85-4.37l0,0,.63.5Z"/><path class="ae0f7254-268f-480e-8c00-9db0c8ac4374" d="M9,27.49h0a1.45,1.45,0,0,0,1.21-.8h0A1.45,1.45,0,0,0,9,27.49Z"/><path class="ae0f7254-268f-480e-8c00-9db0c8ac4374" d="M12.66,26l-.69.69V25.13H10.14A3.8,3.8,0,0,0,9,25.35,2.38,2.38,0,0,0,7.43,26.8L7.36,27h0L2.81,28.5a1.49,1.49,0,0,0,1.62,1h3.3a3.67,3.67,0,0,1,3.67,3.67,10,10,0,0,1-3.5,7.61,22,22,0,0,0,5.58,2.91,13.76,13.76,0,0,0,2-8.08,14,14,0,0,0-2.2-6.78l-.07-.11V27.38a1.72,1.72,0,0,1,1.71-1.72H15v.81h-.05a.91.91,0,0,0-.84.57,2.19,2.19,0,0,0,1.8-1.91H14.63A2.67,2.67,0,0,0,12.66,26Zm-1.59.57A2.06,2.06,0,0,1,9.2,28.2H9.06a2,2,0,0,1-.53-.07L8.18,28l.06-.37a2,2,0,0,1,2.53-1.61l.36.09Z"/><path class="ae0f7254-268f-480e-8c00-9db0c8ac4374" d="M7.25,40.32a9.24,9.24,0,0,0,2.94-4.39,3.67,3.67,0,0,1-2.46.94H4A17.58,17.58,0,0,0,7.25,40.32Z"/><path class="ae0f7254-268f-480e-8c00-9db0c8ac4374" d="M0,5.31c2.89,1.18,4.58.19,6.21-.76,1.93-1.13,3.93-2.3,7.48.36a10.12,10.12,0,0,0,3.11-1.7c2-1.38,3.78-2.7,7.43-.07h0l.1.07h0L27.53,5.8a4.92,4.92,0,0,1,2.67-1,4.62,4.62,0,0,1,2.58,1,4,4,0,0,0,4,.78v0h0v-4C32.3,1,25.6,0,18.39,0S4.49,1,0,2.64V5.31Z"/><path class="ae0f7254-268f-480e-8c00-9db0c8ac4374" d="M2.42,10.43A3.22,3.22,0,0,0,0,9.63v0H0v5.75l4.17-4A7.23,7.23,0,0,1,2.42,10.43Z"/><path class="ae0f7254-268f-480e-8c00-9db0c8ac4374" d="M36.79,7.52a5,5,0,0,1-1.39.21,5.38,5.38,0,0,1-3.08-1.16c-1.19-.79-2.14-1.41-4.1-.2l8.57,7Z"/><polygon class="ae0f7254-268f-480e-8c00-9db0c8ac4374" points="36.79 7.5 36.79 7.5 36.79 7.5 36.79 7.5"/><path class="ae0f7254-268f-480e-8c00-9db0c8ac4374" d="M25.42,9l0,0c.68.76,1.22,1.37,2.14,1.37h0c.74,0,1.16-.66,1.64-1.41l.29-.43L23.76,3.85c-3.16-2.29-4.54-1.31-6.45.06A9.08,9.08,0,0,1,12.51,6,4.73,4.73,0,0,0,9.72,7.22l-2,2c.43.67.82,1.18,1.49,1.18h0c.92,0,1.46-.61,2.14-1.37h0l.47-.52h0l.11-.11h0a2.09,2.09,0,0,1,1.47-.6,2.12,2.12,0,0,1,1.47.59h0l.11.12h0a8.65,8.65,0,0,1,1.28,1.94c.56,1,1,1.82,2.14,1.82s1.56-.76,2.11-1.81a8.58,8.58,0,0,1,1.28-2h0l.1-.11h0a2.11,2.11,0,0,1,1.48-.6,2.09,2.09,0,0,1,1.47.6h0l.09.1h0C25.12,8.62,25.28,8.8,25.42,9Z"/><path class="ae0f7254-268f-480e-8c00-9db0c8ac4374" d="M0,8.77a2.83,2.83,0,0,1,.41,0,4.44,4.44,0,0,1,2.48,1,5,5,0,0,0,2,.94L9.14,6.6a5.5,5.5,0,0,1,3.3-1.47h.08c-2.66-1.71-4.15-.84-5.87.16l0,0h0A7.91,7.91,0,0,1,2.5,6.71,7.06,7.06,0,0,1,0,6.22Z"/><polygon class="ae0f7254-268f-480e-8c00-9db0c8ac4374" points="0.78 15.76 0.78 15.76 0.78 15.76 0.78 15.76"/><path class="ae0f7254-268f-480e-8c00-9db0c8ac4374" d="M36.77,14.4,30.18,9.05,30,9.4c-.57.88-1.16,1.8-2.35,1.8h0A3.65,3.65,0,0,1,24.8,9.55h0L24.28,9a1.26,1.26,0,0,0-.91-.39,1.3,1.3,0,0,0-.92.39,7.49,7.49,0,0,0-1.18,1.81c-.61,1.17-1.19,2.27-2.87,2.27s-2.28-1.1-2.9-2.27A7.35,7.35,0,0,0,14.31,9a1.26,1.26,0,0,0-.91-.39,1.3,1.3,0,0,0-.92.39c-.16.18-.33.36-.48.54l0,0A3.65,3.65,0,0,1,9.19,11.2h0A2.52,2.52,0,0,1,7.06,9.77l-1.77,1.7v.08H5.21L.81,15.76h36V14.38h0Z"/><path class="ae0f7254-268f-480e-8c00-9db0c8ac4374" d="M18.8,39.68a24.72,24.72,0,0,0,5.44-1.55l.15-.05h0l.3-.12V34.62H21.6a1.22,1.22,0,0,1-1-.58,1.4,1.4,0,0,1-.07-1.33l.89-1.82a1.07,1.07,0,0,1-.4-.39,1.28,1.28,0,0,1-.07-1.23l.9-1.84a1.2,1.2,0,0,1-.46-.41,1.23,1.23,0,0,1-.06-1.15L24.16,20a1.06,1.06,0,0,1,.95-.62,1.07,1.07,0,0,1,1,.62l.54,1.11,1.3-2.69a1.05,1.05,0,0,1,.94-.61,1.07,1.07,0,0,1,.95.61l2.8,5.78a1.16,1.16,0,0,1-.06,1.14,1.06,1.06,0,0,1-.44.4L33,27.56a1.26,1.26,0,0,1-.07,1.22,1.09,1.09,0,0,1-.39.38L33.39,31h0a1.35,1.35,0,0,1-.07,1.32,1.2,1.2,0,0,1-1,.57H29.77a1.38,1.38,0,0,1-.13,1.2,1.31,1.31,0,0,1-.36.38v2.33a12.52,12.52,0,0,1,3.49.18,18.61,18.61,0,0,0,1.32-2.1,25.89,25.89,0,0,0,2.7-12.33V16.57h-18"/><path class="ae0f7254-268f-480e-8c00-9db0c8ac4374" d="M18.8,45a27.61,27.61,0,0,0,7.63-2.59L27,42a18.28,18.28,0,0,0,5.15-4.34C29,37.23,27,38,24.6,38.9l-.19.08h0a24.68,24.68,0,0,1-5.61,1.55"/><path class="ae0f7254-268f-480e-8c00-9db0c8ac4374" d="M28.93,33.59a.53.53,0,0,0,0-.51l-.12-.24h0l-1.07-2.2-.21-.44h.72a.26.26,0,0,0,.16-.06s0,0,0,0h0v0l0,0a.48.48,0,0,0,.06-.18.39.39,0,0,0,0-.23l-.72-1.48-.72-1.48H28a.2.2,0,0,0,.17-.11.25.25,0,0,0,.05-.15.3.3,0,0,0,0-.18l-2-4.15h0l-.82-1.71a.21.21,0,0,0-.39,0l-2.84,5.86a.32.32,0,0,0,0,.33.22.22,0,0,0,.18.11h.86l-1.43,3a.41.41,0,0,0,0,.41.27.27,0,0,0,.23.15h.72l-1.4,2.88a.55.55,0,0,0,0,.51.35.35,0,0,0,.3.18h7A.37.37,0,0,0,28.93,33.59Z"/><path class="ae0f7254-268f-480e-8c00-9db0c8ac4374" d="M32.31,32a.37.37,0,0,0,.3-.17.54.54,0,0,0,0-.5h0l-1.38-2.85H32a.3.3,0,0,0,.23-.14.45.45,0,0,0,0-.4L30.8,25h.86a.22.22,0,0,0,.17-.11.35.35,0,0,0,0-.32L29,18.8a.2.2,0,0,0-.37,0l-1.59,3.29,1.4,2.9.43.88A1.18,1.18,0,0,1,28.85,27a1.11,1.11,0,0,1-.45.41l.3.61.59,1.23a1.22,1.22,0,0,1,.13.62,1.29,1.29,0,0,1-.19.61,1.15,1.15,0,0,1-.4.39l0,.09.49,1Z"/><path class="ae0f7254-268f-480e-8c00-9db0c8ac4374" d="M28.43,36.86V34.62H25.54v3A17.35,17.35,0,0,1,28.43,36.86Z"/><path class="ae0f7254-268f-480e-8c00-9db0c8ac4374" d="M46.76,1.92h2.83v11.9H54.1V16H46.76Z"/><path class="ae0f7254-268f-480e-8c00-9db0c8ac4374" d="M56,1.92h2.83v11.9h4.51V16H56Z"/><path class="ae0f7254-268f-480e-8c00-9db0c8ac4374" d="M74.49,16l-.9-2.63H68.11L67.21,16h-3l5-14.09h3.36L77.49,16Zm-5.63-4.81h4l-2-5.86Z"/><path class="ae0f7254-268f-480e-8c00-9db0c8ac4374" d="M85.86,16.11a7,7,0,0,1-5.11-2,6.92,6.92,0,0,1-2.07-5.16,6.92,6.92,0,0,1,2.08-5.17A7.45,7.45,0,0,1,91,3.75a7,7,0,0,1,2.07,5.17A6.92,6.92,0,0,1,91,14.08,7,7,0,0,1,85.86,16.11ZM89,12.26a4.7,4.7,0,0,0,1.19-3.35A4.64,4.64,0,0,0,89,5.57a4,4,0,0,0-3.1-1.25,4.11,4.11,0,0,0-3.11,1.26,4.63,4.63,0,0,0-1.19,3.34,4.63,4.63,0,0,0,1.19,3.34,4.11,4.11,0,0,0,3.11,1.26A4.05,4.05,0,0,0,89,12.26Z"/><path class="ae0f7254-268f-480e-8c00-9db0c8ac4374" d="M101.32,1.92h2.84v11.9h4.51V16h-7.35Z"/><path class="ae0f7254-268f-480e-8c00-9db0c8ac4374" d="M110.58,1.92h2.84v11.9h4.51V16h-7.35Z"/><path class="ae0f7254-268f-480e-8c00-9db0c8ac4374" d="M129.06,16l-.91-2.63h-5.47L121.77,16h-3l5-14.09h3.37l5,14.09Zm-5.64-4.81h4l-2-5.86Z"/><path class="ae0f7254-268f-480e-8c00-9db0c8ac4374" d="M140.43,16.11a7,7,0,0,1-5.11-2,6.89,6.89,0,0,1-2.08-5.16,6.93,6.93,0,0,1,2.09-5.17,7.43,7.43,0,0,1,10.21,0,7,7,0,0,1,2.08,5.17,7,7,0,0,1-7.19,7.19Zm3.1-3.85a4.7,4.7,0,0,0,1.19-3.35,4.64,4.64,0,0,0-1.19-3.34,4.06,4.06,0,0,0-3.1-1.25,4.11,4.11,0,0,0-3.11,1.26,4.64,4.64,0,0,0-1.2,3.34,4.64,4.64,0,0,0,1.2,3.34,4.46,4.46,0,0,0,6.21,0Z"/><path class="ae0f7254-268f-480e-8c00-9db0c8ac4374" d="M46.17,29V22.81a.25.25,0,0,1,.29-.29h1.59a3,3,0,0,1,1.72.41,1.45,1.45,0,0,1,.58,1.27,1.61,1.61,0,0,1-1.1,1.61v0a.87.87,0,0,1,.46.37,4.18,4.18,0,0,1,.4.82l.74,1.87a.5.5,0,0,1,0,.14c0,.1-.13.15-.4.15h-.09q-.33,0-.39-.15l-.72-1.87a1.45,1.45,0,0,0-.52-.74,1.72,1.72,0,0,0-.9-.19H47V29c0,.14-.13.21-.38.21h-.08C46.3,29.2,46.17,29.13,46.17,29ZM47,25.53h1.25a1.18,1.18,0,0,0,.86-.35,1.15,1.15,0,0,0,.36-.87,1,1,0,0,0-.34-.79,1.48,1.48,0,0,0-.94-.28H47Z"/><path class="ae0f7254-268f-480e-8c00-9db0c8ac4374" d="M52.69,28.89V22.81c0-.19.09-.29.28-.29h3.32c.13,0,.19.1.19.29V23c0,.19-.06.28-.19.28H53.53v2.17H56c.13,0,.19.1.19.29v.15c0,.19-.06.29-.19.29H53.53v2.32H56.3c.13,0,.19.09.19.28v.15c0,.2-.06.29-.19.29H53C52.78,29.18,52.69,29.09,52.69,28.89Z"/><path class="ae0f7254-268f-480e-8c00-9db0c8ac4374" d="M58,28.54a.73.73,0,0,1,.13-.31c.09-.13.16-.2.21-.2a1.13,1.13,0,0,1,.24.12,3,3,0,0,0,.59.24,2.84,2.84,0,0,0,.87.13,1.2,1.2,0,0,0,.83-.32,1.09,1.09,0,0,0,0-1.57,2.34,2.34,0,0,0-.77-.45l-.91-.36a1.84,1.84,0,0,1-.77-.59,1.72,1.72,0,0,1,.26-2.29,2.33,2.33,0,0,1,1.53-.48,3.11,3.11,0,0,1,1,.18c.36.11.53.25.53.4a.68.68,0,0,1-.12.31c-.08.13-.14.2-.18.2a.55.55,0,0,1-.2-.1,2.21,2.21,0,0,0-1-.26,1.37,1.37,0,0,0-.89.27,1,1,0,0,0-.34.79.92.92,0,0,0,.62.82l.6.24a6.21,6.21,0,0,1,.66.28,3,3,0,0,1,.6.37,1.54,1.54,0,0,1,.45.57,2,2,0,0,1,.17.83,1.73,1.73,0,0,1-.57,1.38,2.15,2.15,0,0,1-1.45.5A4,4,0,0,1,58.62,29C58.22,28.84,58,28.69,58,28.54Z"/><path class="ae0f7254-268f-480e-8c00-9db0c8ac4374" d="M64.44,28.37a3.79,3.79,0,0,1-.75-2.54,3.72,3.72,0,0,1,.74-2.51,2.76,2.76,0,0,1,2.19-.86,2.79,2.79,0,0,1,2.19.86,3.67,3.67,0,0,1,.75,2.51,3.79,3.79,0,0,1-.75,2.54,3.18,3.18,0,0,1-4.37,0Zm.64-.54a1.81,1.81,0,0,0,1.54.69,1.84,1.84,0,0,0,1.54-.69,3.23,3.23,0,0,0,.53-2,3.14,3.14,0,0,0-.53-2,1.85,1.85,0,0,0-1.54-.67,1.82,1.82,0,0,0-1.54.67,3.14,3.14,0,0,0-.53,2A3.23,3.23,0,0,0,65.08,27.83Z"/><path class="ae0f7254-268f-480e-8c00-9db0c8ac4374" d="M71.74,29V22.81c0-.19.09-.29.28-.29h1.6a3,3,0,0,1,1.72.41,1.45,1.45,0,0,1,.57,1.27,1.6,1.6,0,0,1-1.09,1.61v0a.91.91,0,0,1,.46.37,5.73,5.73,0,0,1,.4.82l.74,1.87a.5.5,0,0,1,0,.14c0,.1-.14.15-.4.15H76c-.22,0-.34-.05-.38-.15l-.72-1.87a1.46,1.46,0,0,0-.53-.74,1.68,1.68,0,0,0-.89-.19h-.86V29c0,.14-.12.21-.38.21h-.07C71.86,29.2,71.74,29.13,71.74,29Zm.83-3.46h1.26a1.19,1.19,0,0,0,.86-.35,1.15,1.15,0,0,0,.36-.87,1,1,0,0,0-.35-.79,1.46,1.46,0,0,0-.94-.28H72.57Z"/><path class="ae0f7254-268f-480e-8c00-9db0c8ac4374" d="M79.54,29V23.24H77.71c-.13,0-.19-.09-.19-.28v-.15c0-.19.06-.29.19-.29h4.46c.13,0,.19.1.19.29V23c0,.19-.06.28-.19.28h-1.8V29c0,.14-.12.21-.38.21h-.07C79.66,29.2,79.54,29.13,79.54,29Z"/><path class="ae0f7254-268f-480e-8c00-9db0c8ac4374" d="M83.79,28.46c0-.2.13-.31.38-.31h.09c.25,0,.38.09.38.27a2.45,2.45,0,0,1-.35,1.32q-.35.54-.63.54c-.19,0-.28,0-.28-.14a.7.7,0,0,1,.09-.23A3.25,3.25,0,0,0,83.79,28.46Z"/><path class="ae0f7254-268f-480e-8c00-9db0c8ac4374" d="M89.4,25.91q0-3.45,3.09-3.45a3.85,3.85,0,0,1,1.25.2c.37.13.56.26.56.39a.86.86,0,0,1-.11.35c-.09.14-.15.21-.21.21l-.21-.11a2.51,2.51,0,0,0-.52-.21,2.55,2.55,0,0,0-.74-.1,2.07,2.07,0,0,0-1.73.66,3.22,3.22,0,0,0-.51,2q0,2.7,2.13,2.7a5.14,5.14,0,0,0,1.23-.13V26.47H92.51c-.12,0-.19-.1-.19-.29V26c0-.19.07-.28.19-.28h1.67c.19,0,.29.09.29.28v2.52q0,.69-2.13.69Q89.4,29.24,89.4,25.91Z"/><path class="ae0f7254-268f-480e-8c00-9db0c8ac4374" d="M97.26,28.37a3.79,3.79,0,0,1-.75-2.54,3.67,3.67,0,0,1,.75-2.51,2.72,2.72,0,0,1,2.18-.86,2.76,2.76,0,0,1,2.19.86,3.67,3.67,0,0,1,.75,2.51,3.79,3.79,0,0,1-.75,2.54,3.18,3.18,0,0,1-4.37,0Zm.64-.54a2.06,2.06,0,0,0,3.08,0,3.17,3.17,0,0,0,.53-2,3.08,3.08,0,0,0-.53-2,2.1,2.1,0,0,0-3.08,0,3.14,3.14,0,0,0-.52,2A3.23,3.23,0,0,0,97.9,27.83Z"/><path class="ae0f7254-268f-480e-8c00-9db0c8ac4374" d="M104.56,28.89V22.71c0-.14.13-.21.38-.21H105c.25,0,.38.07.38.21v5.75H108c.13,0,.19.09.19.28v.15c0,.2-.06.29-.19.29h-3.17C104.65,29.18,104.56,29.09,104.56,28.89Z"/><path class="ae0f7254-268f-480e-8c00-9db0c8ac4374" d="M109.88,29V22.81c0-.19.09-.29.28-.29h3c.13,0,.19.1.19.29V23c0,.19-.06.28-.19.28h-2.44v2.17H113c.13,0,.19.1.19.29v.15c0,.19-.06.29-.19.29h-2.27V29c0,.14-.13.21-.38.21h-.08C110,29.2,109.88,29.13,109.88,29Z"/><path class="ae0f7254-268f-480e-8c00-9db0c8ac4374" d="M117.93,27.16a1.71,1.71,0,0,1,.36-1.07,1.54,1.54,0,0,1,.84-.59v0a1.63,1.63,0,0,1-.71-.53,1.41,1.41,0,0,1-.27-.87,1.42,1.42,0,0,1,.52-1.19,2.21,2.21,0,0,1,1.37-.41c.56,0,.84.11.84.31a1,1,0,0,1-.06.27c0,.13-.09.19-.15.19l-.21,0a2.07,2.07,0,0,0-.46,0,1.25,1.25,0,0,0-.51.1.73.73,0,0,0-.34.27,1.16,1.16,0,0,0-.2.68,1.09,1.09,0,0,0,.32.74,1.2,1.2,0,0,0,1,.36h1.12l.12-1q0-.21.3-.21h.1c.19,0,.28.07.28.21v1h.8c.13,0,.19.09.19.28v.12c0,.19-.06.28-.19.28h-.8v1.87c0,.47.17.7.52.7l.27,0,.14,0c.05,0,.1,0,.14.17a.86.86,0,0,1,.05.27c0,.19-.22.29-.67.29a1.2,1.2,0,0,1-1-.41,3,3,0,0,1-1.55.41,2.48,2.48,0,0,1-1.42-.44A1.88,1.88,0,0,1,117.93,27.16Zm.83.08A1.24,1.24,0,0,0,119,28a1.13,1.13,0,0,0,.52.42,1.77,1.77,0,0,0,.61.1,2.46,2.46,0,0,0,1.24-.35c0-.11,0-.21,0-.27V26h-1.16a1.71,1.71,0,0,0-1.06.29A1.16,1.16,0,0,0,118.76,27.24Z"/><path class="ae0f7254-268f-480e-8c00-9db0c8ac4374" d="M127.45,28.54a.62.62,0,0,1,.13-.31c.09-.13.15-.2.2-.2l.24.12a3.22,3.22,0,0,0,.59.24,2.94,2.94,0,0,0,.87.13,1.2,1.2,0,0,0,.84-.32,1,1,0,0,0,.35-.8,1,1,0,0,0-.32-.77,2.34,2.34,0,0,0-.77-.45c-.3-.11-.61-.23-.91-.36a1.87,1.87,0,0,1-.78-.59,1.71,1.71,0,0,1,.27-2.29,2.3,2.3,0,0,1,1.53-.48,3.16,3.16,0,0,1,1,.18c.35.11.53.25.53.4a.68.68,0,0,1-.12.31c-.08.13-.14.2-.19.2a.55.55,0,0,1-.19-.1,2.27,2.27,0,0,0-1.05-.26,1.4,1.4,0,0,0-.9.27,1,1,0,0,0-.33.79.92.92,0,0,0,.62.82l.6.24a6.21,6.21,0,0,1,.66.28,3,3,0,0,1,.6.37,1.43,1.43,0,0,1,.44.57,1.84,1.84,0,0,1,.17.83,1.73,1.73,0,0,1-.57,1.38,2.12,2.12,0,0,1-1.44.5,3.9,3.9,0,0,1-1.47-.24C127.65,28.84,127.45,28.69,127.45,28.54Z"/><path class="ae0f7254-268f-480e-8c00-9db0c8ac4374" d="M133.38,29V22.81a.25.25,0,0,1,.29-.29h1.93a3,3,0,0,1,1.35.32,1.43,1.43,0,0,1,.56.58,1.94,1.94,0,0,1,.21.93,2.27,2.27,0,0,1-.17.91,1.48,1.48,0,0,1-.4.57,2.05,2.05,0,0,1-.54.33,2.52,2.52,0,0,1-.92.19h-1.47V29c0,.14-.13.21-.38.21h-.08C133.51,29.2,133.38,29.13,133.38,29Zm.84-3.37h1.48a1.22,1.22,0,0,0,.71-.23.87.87,0,0,0,.32-.38,1.49,1.49,0,0,0,.12-.62,1,1,0,0,0-.38-.89,1.56,1.56,0,0,0-.9-.26h-1.35Z"/><path class="ae0f7254-268f-480e-8c00-9db0c8ac4374" d="M138.82,29a.39.39,0,0,1,0-.13l2.25-6.26c0-.1.16-.15.39-.15h.27c.22,0,.35.05.38.15l2.26,6.26a.35.35,0,0,1,0,.13c0,.11-.14.16-.41.16h-.08c-.22,0-.35-.05-.38-.15L143,27.49h-2.8l-.54,1.56c0,.1-.16.15-.38.15h-.05C139,29.2,138.82,29.15,138.82,29Zm1.65-2.28h2.27l-1-2.83-.12-.55-.15.55Z"/><path class="ae0f7254-268f-480e-8c00-9db0c8ac4374" d="M47.3,40.86a1.34,1.34,0,0,0,.07.52.4.4,0,0,0,.27.22,2.59,2.59,0,0,0,.62.08v.19c-.33,0-.8,0-1.4,0s-1,0-1.22,0v-.19a1.66,1.66,0,0,0,.5-.08.37.37,0,0,0,.22-.22,2.09,2.09,0,0,0,0-.52V36.14a2.09,2.09,0,0,0,0-.52.37.37,0,0,0-.22-.22,1.66,1.66,0,0,0-.5-.08v-.19c.27,0,.65,0,1.16,0h1.44a3.12,3.12,0,0,1,1.26.23,1.76,1.76,0,0,1,.78.66,1.87,1.87,0,0,1,.25,1,2.22,2.22,0,0,1-.23,1,1.84,1.84,0,0,1-.79.8,2.9,2.9,0,0,1-1.48.32H47.3Zm1.92-2.4a2.24,2.24,0,0,0,.36-1.34,2.64,2.64,0,0,0-.16-1,1.12,1.12,0,0,0-.5-.59,1.87,1.87,0,0,0-.92-.2,1,1,0,0,0-.44.07.36.36,0,0,0-.21.24,1.66,1.66,0,0,0-.05.51V39h.64A1.46,1.46,0,0,0,49.22,38.46Z"/><path class="ae0f7254-268f-480e-8c00-9db0c8ac4374" d="M53.8,37.23a1,1,0,0,0-.66-.2,1.12,1.12,0,0,0-.94.34.55.55,0,0,1,.32.2.6.6,0,0,1,.12.38.47.47,0,0,1-.15.37.53.53,0,0,1-.4.14.46.46,0,0,1-.38-.16.65.65,0,0,1-.14-.43.85.85,0,0,1,.45-.68,2.17,2.17,0,0,1,.57-.25,2.59,2.59,0,0,1,.76-.1,2.4,2.4,0,0,1,.69.09,1.07,1.07,0,0,1,.46.26,1.1,1.1,0,0,1,.3.52,3,3,0,0,1,.08.82v2.64a.69.69,0,0,0,.07.34.24.24,0,0,0,.23.11.5.5,0,0,0,.21,0,.69.69,0,0,0,.21-.15l.11.16a2.59,2.59,0,0,1-.28.2,1,1,0,0,1-.25.11,1.18,1.18,0,0,1-.34,0,.79.79,0,0,1-.64-.23,1,1,0,0,1-.18-.61,1.64,1.64,0,0,1-.66.65,1.77,1.77,0,0,1-.8.19,1.64,1.64,0,0,1-.6-.11,1,1,0,0,1-.61-1,1.05,1.05,0,0,1,.18-.62,1.57,1.57,0,0,1,.5-.45,6.31,6.31,0,0,1,.86-.42l.45-.18a1.69,1.69,0,0,0,.52-.3.44.44,0,0,0,.16-.33V38A1,1,0,0,0,53.8,37.23Zm0,1.93c-.11.07-.33.18-.68.35a2.79,2.79,0,0,0-.46.26,1.19,1.19,0,0,0-.33.37,1.16,1.16,0,0,0-.13.58.85.85,0,0,0,.21.62.74.74,0,0,0,.55.21A1.26,1.26,0,0,0,54,40.83V39A.58.58,0,0,1,53.79,39.16Z"/><path class="ae0f7254-268f-480e-8c00-9db0c8ac4374" d="M59.18,37v.19H57.77v3.68a1,1,0,0,0,.15.62.58.58,0,0,0,.46.19.63.63,0,0,0,.5-.24,2,2,0,0,0,.36-.78l.18,0c-.15.87-.56,1.31-1.23,1.31a1.34,1.34,0,0,1-.53-.08,1,1,0,0,1-.37-.23,1.12,1.12,0,0,1-.29-.52,3,3,0,0,1-.09-.82V37.17H56V37h.91V35.52a2.73,2.73,0,0,0,.86-.13V37Z"/><path class="ae0f7254-268f-480e-8c00-9db0c8ac4374" d="M62.38,37.23a1,1,0,0,0-.66-.2,1.13,1.13,0,0,0-.94.34.55.55,0,0,1,.32.2.6.6,0,0,1,.13.38.47.47,0,0,1-.15.37.57.57,0,0,1-.41.14.46.46,0,0,1-.38-.16.65.65,0,0,1-.14-.43.85.85,0,0,1,.45-.68,2.32,2.32,0,0,1,.57-.25,2.59,2.59,0,0,1,.76-.1,2.4,2.4,0,0,1,.69.09,1,1,0,0,1,.76.78,3,3,0,0,1,.09.82v2.64a.71.71,0,0,0,.06.34.24.24,0,0,0,.23.11.46.46,0,0,0,.21,0,.86.86,0,0,0,.22-.15l.1.16a2.59,2.59,0,0,1-.28.2.82.82,0,0,1-.25.11,1.18,1.18,0,0,1-.34,0,.75.75,0,0,1-.63-.23,1,1,0,0,1-.18-.61,1.73,1.73,0,0,1-.67.65,1.77,1.77,0,0,1-.8.19,1.64,1.64,0,0,1-.6-.11,1,1,0,0,1-.44-.36,1,1,0,0,1-.16-.59,1,1,0,0,1,.17-.62,1.69,1.69,0,0,1,.5-.45,6.31,6.31,0,0,1,.86-.42l.45-.18a1.77,1.77,0,0,0,.53-.3.47.47,0,0,0,.16-.33V38A1,1,0,0,0,62.38,37.23Zm0,1.93c-.1.07-.33.18-.67.35a2.54,2.54,0,0,0-.47.26,1.15,1.15,0,0,0-.46.95.85.85,0,0,0,.21.62.74.74,0,0,0,.55.21,1.27,1.27,0,0,0,1.08-.72V39A.71.71,0,0,1,62.37,39.16Z"/><path class="ae0f7254-268f-480e-8c00-9db0c8ac4374" d="M69,41a.77.77,0,0,1,.31.67,1.62,1.62,0,0,1-.3.91,2.23,2.23,0,0,1-.89.75,3.34,3.34,0,0,1-1.48.3,4.57,4.57,0,0,1-.93-.1,2,2,0,0,1-.71-.3.58.58,0,0,1-.27-.48.91.91,0,0,1,.34-.63,3.33,3.33,0,0,1,.85-.53h0a1.38,1.38,0,0,1-.65-.15.58.58,0,0,1-.3-.57.89.89,0,0,1,.27-.62,2.92,2.92,0,0,1,.92-.59,1.32,1.32,0,0,1-.65-.5,1.42,1.42,0,0,1-.23-.85,1.34,1.34,0,0,1,.48-1.13A2,2,0,0,1,67,36.84a2.44,2.44,0,0,1,.68.08,1.94,1.94,0,0,1,.33-.85.8.8,0,0,1,.65-.31.46.46,0,0,1,.37.14.48.48,0,0,1,.13.36.42.42,0,0,1-.13.32.41.41,0,0,1-.32.13.4.4,0,0,1-.35-.15,1.09,1.09,0,0,1-.16-.45,1.06,1.06,0,0,0-.25.47,2.24,2.24,0,0,0-.1.39,1.37,1.37,0,0,1,.67.5,1.71,1.71,0,0,1,0,1.71,1.42,1.42,0,0,1-.63.5,2.31,2.31,0,0,1-.91.16,2.58,2.58,0,0,1-.7-.09,4.07,4.07,0,0,0-.59.38.5.5,0,0,0-.21.38.27.27,0,0,0,.11.23.55.55,0,0,0,.35.08h2.23A1.43,1.43,0,0,1,69,41Zm-3.32,1a1,1,0,0,0-.17.54.66.66,0,0,0,.21.51,1.23,1.23,0,0,0,.52.31,2.41,2.41,0,0,0,1.49-.06,1.56,1.56,0,0,0,.66-.45,1.08,1.08,0,0,0,.26-.74.67.67,0,0,0-.06-.3.39.39,0,0,0-.22-.17,1.29,1.29,0,0,0-.44-.06H66.15A1.24,1.24,0,0,0,65.67,42Zm.68-4.73a2.5,2.5,0,0,0,0,2,.73.73,0,0,0,.64.31.75.75,0,0,0,.65-.3,1.79,1.79,0,0,0,.22-1,1.77,1.77,0,0,0-.22-1,.83.83,0,0,0-1.29,0Z"/><path class="ae0f7254-268f-480e-8c00-9db0c8ac4374" d="M73.43,37.11a1.92,1.92,0,0,1,.76.85,3.34,3.34,0,0,1,.28,1.46,3.28,3.28,0,0,1-.28,1.46,1.87,1.87,0,0,1-.76.85,2.29,2.29,0,0,1-1.12.27,2.25,2.25,0,0,1-1.11-.27,1.89,1.89,0,0,1-.77-.85,3.42,3.42,0,0,1-.28-1.46A3.49,3.49,0,0,1,70.43,38a1.94,1.94,0,0,1,.77-.85,2.25,2.25,0,0,1,1.11-.27A2.29,2.29,0,0,1,73.43,37.11Zm-2,.5a3.83,3.83,0,0,0-.33,1.81,3.81,3.81,0,0,0,.33,1.81,1,1,0,0,0,.9.58,1,1,0,0,0,.91-.58,3.81,3.81,0,0,0,.33-1.81,3.83,3.83,0,0,0-.33-1.81,1,1,0,0,0-.91-.58A1,1,0,0,0,71.41,37.61Z"/><path class="ae0f7254-268f-480e-8c00-9db0c8ac4374" d="M77.67,37.11a1.78,1.78,0,0,1,1-.27,1.36,1.36,0,0,1,1,.35,1.1,1.1,0,0,1,.25.48,3.13,3.13,0,0,1,.08.77V41a1,1,0,0,0,.07.42.43.43,0,0,0,.23.21,1.23,1.23,0,0,0,.43.06v.2l-1.15,0-1.06,0v-.2a.92.92,0,0,0,.37-.06.36.36,0,0,0,.19-.21,1,1,0,0,0,.07-.42V38.23a2.32,2.32,0,0,0-.06-.57.67.67,0,0,0-.22-.38.77.77,0,0,0-.49-.14,1.09,1.09,0,0,0-.7.23,1.42,1.42,0,0,0-.47.62,2.26,2.26,0,0,0-.17.88V41a1.17,1.17,0,0,0,.06.42.41.41,0,0,0,.2.21,1,1,0,0,0,.37.06v.2l-1.06,0-1.15,0v-.2a1.27,1.27,0,0,0,.43-.06.43.43,0,0,0,.23-.21,1.14,1.14,0,0,0,.07-.42V38a1,1,0,0,0-.16-.64.68.68,0,0,0-.57-.2V37L76,37a3,3,0,0,0,1-.13V38A1.77,1.77,0,0,1,77.67,37.11Z"/><path class="ae0f7254-268f-480e-8c00-9db0c8ac4374" d="M83,41.4a.43.43,0,0,0,.23.21,1.21,1.21,0,0,0,.42.06v.2l-1.15,0-1.15,0v-.2a1.17,1.17,0,0,0,.42-.06A.4.4,0,0,0,82,41.4a1,1,0,0,0,.08-.42V38a1,1,0,0,0-.17-.64.65.65,0,0,0-.56-.2V37l.59,0a3.08,3.08,0,0,0,1-.13V41A1,1,0,0,0,83,41.4Zm-.26-6.73a.66.66,0,0,1,.22.22.59.59,0,0,1,.09.31.55.55,0,0,1-.09.3.58.58,0,0,1-.22.22.52.52,0,0,1-.3.08.58.58,0,0,1-.31-.08.58.58,0,0,1-.22-.22.64.64,0,0,1-.08-.3.68.68,0,0,1,.08-.31.66.66,0,0,1,.22-.22.68.68,0,0,1,.31-.08A.61.61,0,0,1,82.74,34.67Z"/><path class="ae0f7254-268f-480e-8c00-9db0c8ac4374" d="M86.92,37.23a1,1,0,0,0-.66-.2,1.12,1.12,0,0,0-.94.34.55.55,0,0,1,.32.2.6.6,0,0,1,.13.38.5.5,0,0,1-.15.37.57.57,0,0,1-.41.14.46.46,0,0,1-.38-.16.65.65,0,0,1-.14-.43.85.85,0,0,1,.45-.68,2.32,2.32,0,0,1,.57-.25,2.59,2.59,0,0,1,.76-.1,2.4,2.4,0,0,1,.69.09,1.07,1.07,0,0,1,.46.26,1.1,1.1,0,0,1,.3.52,3,3,0,0,1,.08.82v2.64a.69.69,0,0,0,.07.34.24.24,0,0,0,.23.11.5.5,0,0,0,.21,0,.69.69,0,0,0,.21-.15l.11.16a2.59,2.59,0,0,1-.28.2,1,1,0,0,1-.25.11,1.18,1.18,0,0,1-.34,0,.79.79,0,0,1-.64-.23,1,1,0,0,1-.17-.61,1.73,1.73,0,0,1-.67.65,1.77,1.77,0,0,1-.8.19,1.64,1.64,0,0,1-.6-.11,1,1,0,0,1-.44-.36,1,1,0,0,1-.17-.59,1.05,1.05,0,0,1,.18-.62,1.57,1.57,0,0,1,.5-.45,6.31,6.31,0,0,1,.86-.42l.45-.18a1.69,1.69,0,0,0,.52-.3.45.45,0,0,0,.17-.33V38A1,1,0,0,0,86.92,37.23Zm0,1.93c-.11.07-.33.18-.68.35a2.79,2.79,0,0,0-.46.26,1.19,1.19,0,0,0-.33.37,1.27,1.27,0,0,0-.13.58.85.85,0,0,0,.21.62.74.74,0,0,0,.55.21,1.28,1.28,0,0,0,1.08-.72V39A.71.71,0,0,1,86.91,39.16Z"/><path class="ae0f7254-268f-480e-8c00-9db0c8ac4374" d="M97.3,41.68v.19q-.39,0-1,0c-.54,0-1,0-1.22,0v-.19a1.43,1.43,0,0,0,.52-.09.28.28,0,0,0,.16-.27,1.45,1.45,0,0,0-.11-.44L95,39.32H92.75l-.4,1a2.52,2.52,0,0,0-.19.79.47.47,0,0,0,.21.43,1.32,1.32,0,0,0,.62.14v.19c-.36,0-.73,0-1.1,0a7,7,0,0,0-.71,0v-.19c.32-.07.57-.35.75-.83l2.24-5.77h.15l2.32,6C96.8,41.46,97,41.66,97.3,41.68Zm-3.39-5.39-1.1,2.84H95Z"/><path class="ae0f7254-268f-480e-8c00-9db0c8ac4374" d="M99.64,37.48a1.62,1.62,0,0,1,.48-.46,1.07,1.07,0,0,1,.59-.18.93.93,0,0,1,.45.1.74.74,0,0,1,.31.27.7.7,0,0,1,.11.37.64.64,0,0,1-.15.43.51.51,0,0,1-.4.17.51.51,0,0,1-.35-.13.46.46,0,0,1-.15-.36.59.59,0,0,1,.32-.51.21.21,0,0,0-.2-.1,1,1,0,0,0-.67.29,2,2,0,0,0-.48.71,2.21,2.21,0,0,0-.17.79v2a.69.69,0,0,0,.25.61,1.4,1.4,0,0,0,.76.17v.2l-1.47,0-1.12,0v-.2a1.17,1.17,0,0,0,.42-.06.4.4,0,0,0,.23-.21,1,1,0,0,0,.07-.42V38a1,1,0,0,0-.16-.64.65.65,0,0,0-.56-.2V37l.59,0a3.08,3.08,0,0,0,1-.13v1.19A2,2,0,0,1,99.64,37.48Z"/><path class="ae0f7254-268f-480e-8c00-9db0c8ac4374" d="M106.39,41a.75.75,0,0,1,.31.67,1.68,1.68,0,0,1-.29.91,2.26,2.26,0,0,1-.9.75,3.26,3.26,0,0,1-1.47.3,4.57,4.57,0,0,1-.93-.1,2,2,0,0,1-.71-.3.58.58,0,0,1-.27-.48.87.87,0,0,1,.34-.63,3.33,3.33,0,0,1,.85-.53h0a1.45,1.45,0,0,1-.66-.15.57.57,0,0,1-.29-.57.89.89,0,0,1,.27-.62,2.74,2.74,0,0,1,.91-.59,1.41,1.41,0,0,1-.65-.5,1.49,1.49,0,0,1-.23-.85,1.34,1.34,0,0,1,.48-1.13,2,2,0,0,1,1.28-.37,2.32,2.32,0,0,1,.67.08,2,2,0,0,1,.34-.85.79.79,0,0,1,.65-.31.48.48,0,0,1,.37.14.48.48,0,0,1,.13.36.42.42,0,0,1-.13.32.44.44,0,0,1-.33.13.41.41,0,0,1-.35-.15,1,1,0,0,1-.15-.45,1.05,1.05,0,0,0-.26.47,2.24,2.24,0,0,0-.1.39,1.4,1.4,0,0,1,.68.5,1.49,1.49,0,0,1,.24.87,1.51,1.51,0,0,1-.23.84,1.4,1.4,0,0,1-.62.5,2.35,2.35,0,0,1-.91.16,2.53,2.53,0,0,1-.7-.09,3.58,3.58,0,0,0-.59.38.5.5,0,0,0-.21.38.26.26,0,0,0,.1.23.57.57,0,0,0,.35.08h2.24A1.38,1.38,0,0,1,106.39,41Zm-3.31,1a1,1,0,0,0-.17.54.69.69,0,0,0,.2.51,1.26,1.26,0,0,0,.53.31,2.39,2.39,0,0,0,.66.09,2.33,2.33,0,0,0,.82-.15,1.65,1.65,0,0,0,.67-.45,1.13,1.13,0,0,0,.26-.74.67.67,0,0,0-.06-.3.41.41,0,0,0-.23-.17,1.25,1.25,0,0,0-.44-.06h-1.77A1.28,1.28,0,0,0,103.08,42Zm.68-4.73a2.4,2.4,0,0,0,0,2,.72.72,0,0,0,.64.31.77.77,0,0,0,.65-.3,1.87,1.87,0,0,0,.22-1,1.85,1.85,0,0,0-.22-1,.75.75,0,0,0-.65-.31A.72.72,0,0,0,103.76,37.31Z"/><path class="ae0f7254-268f-480e-8c00-9db0c8ac4374" d="M111.16,41.35a1.81,1.81,0,0,1-.61.47,1.79,1.79,0,0,1-.81.18,2.19,2.19,0,0,1-1.18-.31,1.94,1.94,0,0,1-.75-.87,3,3,0,0,1-.26-1.28,3.7,3.7,0,0,1,.26-1.44,2.15,2.15,0,0,1,.75-.94,2,2,0,0,1,1.14-.32,1.7,1.7,0,0,1,1.32.51,2.31,2.31,0,0,1,.46,1.58h-3a4.77,4.77,0,0,0,0,.61,2.65,2.65,0,0,0,.21,1.09,1.85,1.85,0,0,0,.54.72,1.16,1.16,0,0,0,.71.25,1.46,1.46,0,0,0,1.4-1l.19.07A2.1,2.1,0,0,1,111.16,41.35Zm-.67-3.47a1.43,1.43,0,0,0-.31-.63.65.65,0,0,0-.52-.23.92.92,0,0,0-.54.18,1.46,1.46,0,0,0-.41.58,3.09,3.09,0,0,0-.22,1h2.07A3,3,0,0,0,110.49,37.88Z"/><path class="ae0f7254-268f-480e-8c00-9db0c8ac4374" d="M114.68,37.11a1.74,1.74,0,0,1,1-.27,1.38,1.38,0,0,1,1,.35,1.22,1.22,0,0,1,.25.48,3.13,3.13,0,0,1,.08.77V41a1,1,0,0,0,.07.42.41.41,0,0,0,.22.21,1.27,1.27,0,0,0,.43.06v.2l-1.14,0-1.07,0v-.2a.89.89,0,0,0,.37-.06.38.38,0,0,0,.2-.21,1.17,1.17,0,0,0,.06-.42V38.23a3,3,0,0,0-.05-.57.68.68,0,0,0-.23-.38.75.75,0,0,0-.49-.14,1.11,1.11,0,0,0-.7.23,1.5,1.5,0,0,0-.47.62,2.26,2.26,0,0,0-.16.88V41a1.17,1.17,0,0,0,.06.42.38.38,0,0,0,.2.21.92.92,0,0,0,.37.06v.2c-.53,0-.89,0-1.07,0l-1.14,0v-.2a1.17,1.17,0,0,0,.42-.06.4.4,0,0,0,.23-.21,1,1,0,0,0,.07-.42V38a1,1,0,0,0-.16-.64.65.65,0,0,0-.56-.2V37l.59,0a3.08,3.08,0,0,0,1-.13V38A1.67,1.67,0,0,1,114.68,37.11Z"/><path class="ae0f7254-268f-480e-8c00-9db0c8ac4374" d="M121.3,37v.19h-1.4v3.68a1,1,0,0,0,.15.62.56.56,0,0,0,.45.19.65.65,0,0,0,.51-.24,1.9,1.9,0,0,0,.35-.78l.19,0c-.16.87-.57,1.31-1.24,1.31a1.38,1.38,0,0,1-.53-.08,1.1,1.1,0,0,1-.37-.23,1.32,1.32,0,0,1-.29-.52,3.47,3.47,0,0,1-.08-.82V37.17h-.91V37H119V35.52a2.78,2.78,0,0,0,.86-.13V37Z"/><path class="ae0f7254-268f-480e-8c00-9db0c8ac4374" d="M123.61,41.4a.43.43,0,0,0,.23.21,1.27,1.27,0,0,0,.43.06v.2l-1.15,0-1.16,0v-.2a1.27,1.27,0,0,0,.43-.06.43.43,0,0,0,.23-.21,1.14,1.14,0,0,0,.07-.42V38a1,1,0,0,0-.16-.64.68.68,0,0,0-.57-.2V37l.59,0a3,3,0,0,0,1-.13V41A1.14,1.14,0,0,0,123.61,41.4Zm-.26-6.73a.69.69,0,0,1,.23.22.68.68,0,0,1,.08.31.64.64,0,0,1-.08.3.61.61,0,0,1-.23.22.6.6,0,0,1-.6,0,.61.61,0,0,1-.23-.22.64.64,0,0,1-.08-.3.68.68,0,0,1,.08-.31.69.69,0,0,1,.23-.22.6.6,0,0,1,.6,0Z"/><path class="ae0f7254-268f-480e-8c00-9db0c8ac4374" d="M127.23,37.11a1.74,1.74,0,0,1,1-.27,1.38,1.38,0,0,1,1,.35,1.1,1.1,0,0,1,.25.48,3.13,3.13,0,0,1,.08.77V41a1,1,0,0,0,.07.42.4.4,0,0,0,.23.21,1.17,1.17,0,0,0,.42.06v.2l-1.14,0-1.06,0v-.2a.87.87,0,0,0,.36-.06.38.38,0,0,0,.2-.21,1.17,1.17,0,0,0,.06-.42V38.23a3,3,0,0,0,0-.57.73.73,0,0,0-.22-.38.8.8,0,0,0-.5-.14,1.06,1.06,0,0,0-.69.23,1.35,1.35,0,0,0-.47.62,2.09,2.09,0,0,0-.17.88V41a1.17,1.17,0,0,0,.06.42.38.38,0,0,0,.2.21.92.92,0,0,0,.37.06v.2c-.53,0-.89,0-1.07,0l-1.14,0v-.2a1.17,1.17,0,0,0,.42-.06.4.4,0,0,0,.23-.21,1,1,0,0,0,.07-.42V38a1,1,0,0,0-.16-.64.65.65,0,0,0-.56-.2V37l.59,0a3.08,3.08,0,0,0,1-.13V38A1.77,1.77,0,0,1,127.23,37.11Z"/><path class="ae0f7254-268f-480e-8c00-9db0c8ac4374" d="M133.45,37.23a1,1,0,0,0-.66-.2,1.13,1.13,0,0,0-.94.34.55.55,0,0,1,.32.2.6.6,0,0,1,.13.38.47.47,0,0,1-.15.37.55.55,0,0,1-.41.14.46.46,0,0,1-.38-.16.65.65,0,0,1-.14-.43.85.85,0,0,1,.45-.68,2.51,2.51,0,0,1,.57-.25,2.64,2.64,0,0,1,.76-.1,2.4,2.4,0,0,1,.69.09,1.18,1.18,0,0,1,.47.26,1.29,1.29,0,0,1,.3.52,3.47,3.47,0,0,1,.08.82v2.64a.71.71,0,0,0,.06.34.24.24,0,0,0,.23.11.46.46,0,0,0,.21,0,.86.86,0,0,0,.22-.15l.1.16-.27.2a1,1,0,0,1-.26.11,1.15,1.15,0,0,1-.33,0,.78.78,0,0,1-.64-.23,1,1,0,0,1-.18-.61,1.73,1.73,0,0,1-.67.65,1.77,1.77,0,0,1-.8.19,1.64,1.64,0,0,1-.6-.11,1,1,0,0,1-.44-.36,1,1,0,0,1-.16-.59,1.13,1.13,0,0,1,.17-.62,1.69,1.69,0,0,1,.5-.45,6.31,6.31,0,0,1,.86-.42l.45-.18a1.77,1.77,0,0,0,.53-.3.44.44,0,0,0,.16-.33V38A1,1,0,0,0,133.45,37.23Zm0,1.93c-.11.07-.34.18-.68.35a2.54,2.54,0,0,0-.47.26,1.3,1.3,0,0,0-.32.37,1.16,1.16,0,0,0-.14.58.85.85,0,0,0,.21.62.75.75,0,0,0,.55.21,1.27,1.27,0,0,0,1.08-.72V39A.77.77,0,0,1,133.45,39.16Z"/></g></g></svg>