<svg xmlns="http://www.w3.org/2000/svg" viewBox="0 0 64.99 79.41"><defs><style>.fe79b447-b549-436d-bff0-675dd208db42{fill:#fff;}</style></defs><g id="a58b942f-b287-45ed-88d3-054b9bc069fd" data-name="Layer 2"><g id="b408ff9b-816d-4f16-8710-636202455fbc" data-name="Layer 1"><path class="fe79b447-b549-436d-bff0-675dd208db42" d="M31.78,29.27H0V39.74c0,9.65,2,17.71,6.05,24h7.6a5.06,5.06,0,1,0,0-10.12H7.82a4,4,0,0,1-4.36-3.73l0-.53.06,0,8.41-2.79a5.73,5.73,0,0,1,3.49-3.11A8.44,8.44,0,0,1,17.91,43h4.66v.91A6.26,6.26,0,0,1,25.84,43h3.71v.72a5.34,5.34,0,0,1-4.77,5.56v1.12a26.64,26.64,0,0,1,4,12.53A26,26,0,0,1,25.2,77.73a54,54,0,0,0,6.58,1.68Zm-1.92,2.42a34,34,0,0,1-27,13.19H2.76V43.45h.09A32.9,32.9,0,0,0,8.55,43a7.35,7.35,0,0,0,5-7.66v-.08L15,35.06v.08A8.57,8.57,0,0,1,12.64,42a33.15,33.15,0,0,0,4.88-2A11.28,11.28,0,0,0,20,31.85v-.08l1.42-.14v.08a12.53,12.53,0,0,1-1.26,6.83,33.2,33.2,0,0,0,8.57-7.73l.05-.07,1.12.88Z"/><path class="fe79b447-b549-436d-bff0-675dd208db42" d="M16,48.57H16a2.63,2.63,0,0,0,2.14-1.41h-.07A2.59,2.59,0,0,0,16,48.57Z"/><path class="fe79b447-b549-436d-bff0-675dd208db42" d="M22.36,45.84l-1.22,1.21V44.39H17.91a7,7,0,0,0-2.07.4,4.19,4.19,0,0,0-2.72,2.56l-.12.33h0L5,50.34a2.61,2.61,0,0,0,2.85,1.85h5.83a6.48,6.48,0,0,1,6.48,6.48A17.75,17.75,0,0,1,14,72.12a39.06,39.06,0,0,0,9.85,5.14A24.24,24.24,0,0,0,27.37,63a24.77,24.77,0,0,0-3.89-12l-.13-.18V48.36a3,3,0,0,1,3-3h.08v1.42h-.08a1.62,1.62,0,0,0-1.49,1,3.85,3.85,0,0,0,3.19-3.37H25.84A4.77,4.77,0,0,0,22.36,45.84Zm-2.81,1a3.59,3.59,0,0,1-3.3,3H16a3.65,3.65,0,0,1-.93-.12l-.64-.17.12-.65a3.59,3.59,0,0,1,3.3-3A3.51,3.51,0,0,1,19,46l.64.17Z"/><path class="fe79b447-b549-436d-bff0-675dd208db42" d="M12.81,71.23A16.17,16.17,0,0,0,18,63.47a6.44,6.44,0,0,1-4.34,1.67H7A31.51,31.51,0,0,0,12.81,71.23Z"/><path class="fe79b447-b549-436d-bff0-675dd208db42" d="M0,9.38C5.13,11.46,8.11,9.72,11,8c3.42-2,7-4.06,13.21.64a17.94,17.94,0,0,0,5.5-3c3.43-2.45,6.68-4.77,13.12-.14h0l.17.13h0l5.64,4.57a8.68,8.68,0,0,1,4.72-1.71,8.14,8.14,0,0,1,4.56,1.8c1.91,1.26,3.71,2.45,7.07,1.37v0h0V4.67C57.06,1.7,45.22,0,32.5,0S7.93,1.7,0,4.67V9.42Z"/><path class="fe79b447-b549-436d-bff0-675dd208db42" d="M4.28,18.43C2.9,17.51,1.7,16.72,0,17V17H0V27.14l7.38-7.08A12.24,12.24,0,0,1,4.28,18.43Z"/><path class="fe79b447-b549-436d-bff0-675dd208db42" d="M65,13.28a9.17,9.17,0,0,1-2.45.37,9.49,9.49,0,0,1-5.45-2.05c-2.1-1.39-3.77-2.48-7.23-.35L65,23.52Z"/><polygon class="fe79b447-b549-436d-bff0-675dd208db42" points="64.99 13.24 64.99 13.24 64.99 13.24 64.99 13.24"/><path class="fe79b447-b549-436d-bff0-675dd208db42" d="M44.91,15.83l0,0c1.22,1.35,2.17,2.43,3.79,2.43h0c1.3,0,2-1.16,2.9-2.5l.5-.75L42,6.79c-5.59-4-8-2.3-11.4.11-2.21,1.58-4.72,3.37-8.49,3.67a8.27,8.27,0,0,0-4.91,2.18l-3.6,3.45c.77,1.18,1.46,2.08,2.63,2.09h0c1.62,0,2.58-1.08,3.79-2.43h0l.84-.92h0l.2-.21h0a3.73,3.73,0,0,1,5.2,0h0l.2.2h0a15.39,15.39,0,0,1,2.25,3.43c1,1.87,1.7,3.22,3.78,3.22s2.77-1.34,3.74-3.2a14.61,14.61,0,0,1,2.25-3.45h0l.18-.19h0a3.74,3.74,0,0,1,5.22,0h0l.17.17h0Z"/><path class="fe79b447-b549-436d-bff0-675dd208db42" d="M0,15.49a5.81,5.81,0,0,1,.72-.05,7.85,7.85,0,0,1,4.39,1.73,9,9,0,0,0,3.56,1.66l7.47-7.18A9.94,9.94,0,0,1,22,9.06h.14c-4.7-3-7.33-1.5-10.37.28l-.05,0h0c-2,1.17-4.26,2.49-7.28,2.49A12.54,12.54,0,0,1,0,11Z"/><polygon class="fe79b447-b549-436d-bff0-675dd208db42" points="1.38 27.85 1.38 27.85 1.38 27.85 1.38 27.85"/><path class="fe79b447-b549-436d-bff0-675dd208db42" d="M65,25.44,53.32,16c-.12.17-.25.38-.41.62-1,1.56-2,3.17-4.16,3.18h0c-2.29,0-3.56-1.42-4.91-2.93h0l-.9-1a2.24,2.24,0,0,0-3.23,0,13.22,13.22,0,0,0-2.1,3.19c-1.07,2.07-2.09,4-5.07,4s-4-1.95-5.11-4a13.58,13.58,0,0,0-2.1-3.18,2.24,2.24,0,0,0-3.23,0c-.3.31-.59.63-.87.94l0,.05c-1.35,1.51-2.62,2.93-4.92,2.93h0c-1.88,0-2.88-1.25-3.74-2.53l-3.12,3v.15H9.21L1.44,27.85H65V25.41h0Z"/><path class="fe79b447-b549-436d-bff0-675dd208db42" d="M33.21,70.09a42.68,42.68,0,0,0,9.6-2.72l.28-.11h0l.52-.2v-5.9H38.16a2.13,2.13,0,0,1-1.8-1,2.43,2.43,0,0,1-.13-2.34l1.57-3.22a2.12,2.12,0,0,1-.71-.69A2.28,2.28,0,0,1,37,51.7l1.58-3.25a1.91,1.91,0,0,1-.8-.72,2.12,2.12,0,0,1-.11-2l5-10.36a1.85,1.85,0,0,1,3.37,0l1,2,2.3-4.74a1.83,1.83,0,0,1,3.34,0l5,10.21a2.08,2.08,0,0,1-.11,2,1.89,1.89,0,0,1-.78.71l1.55,3.19a2.24,2.24,0,0,1-.12,2.16,1.93,1.93,0,0,1-.68.68L59,54.68h0A2.42,2.42,0,0,1,58.87,57a2.12,2.12,0,0,1-1.78,1H52.58a2.44,2.44,0,0,1-.21,2.12,2.19,2.19,0,0,1-.65.67v4.12a22.48,22.48,0,0,1,6.16.32,31.25,31.25,0,0,0,2.34-3.7C63.38,55.64,65,48.31,65,39.74V29.27H33.21"/><path class="fe79b447-b549-436d-bff0-675dd208db42" d="M33.21,79.41a48.4,48.4,0,0,0,13.47-4.59l1-.57a32.66,32.66,0,0,0,9.11-7.66c-5.53-.83-9.23.57-13.38,2.14l-.33.12h0a43.05,43.05,0,0,1-9.92,2.75"/><path class="fe79b447-b549-436d-bff0-675dd208db42" d="M51.1,59.34a.93.93,0,0,0,0-.9l-.2-.43h0l-1.89-3.89-.38-.78H50a.46.46,0,0,0,.27-.09l.08-.07h0l0,0,0,0a.68.68,0,0,0,.11-.33.74.74,0,0,0-.07-.4l-1.27-2.61-1.27-2.62h1.53a.39.39,0,0,0,.31-.19.67.67,0,0,0,.09-.26.68.68,0,0,0-.06-.33L46.17,39h0L44.7,36a.36.36,0,0,0-.34-.25A.38.38,0,0,0,44,36L39,46.35a.6.6,0,0,0,0,.59.36.36,0,0,0,.31.19h1.52l-2.53,5.23a.77.77,0,0,0,0,.73.52.52,0,0,0,.42.25h1.28l-2.48,5.1a1,1,0,0,0,.05.9.62.62,0,0,0,.53.32H50.57A.63.63,0,0,0,51.1,59.34Z"/><path class="fe79b447-b549-436d-bff0-675dd208db42" d="M57.09,56.52a.61.61,0,0,0,.51-.32.9.9,0,0,0,0-.87h0l-2.45-5h1.27a.46.46,0,0,0,.4-.24.73.73,0,0,0,0-.71L54.4,44.17h1.52a.35.35,0,0,0,.3-.18.62.62,0,0,0,0-.57l-5-10.2A.36.36,0,0,0,51,33a.35.35,0,0,0-.32.24L47.83,39l2.49,5.12.75,1.56a2.05,2.05,0,0,1,.21,1,2.1,2.1,0,0,1-.31,1,1.91,1.91,0,0,1-.8.72l.52,1.09,1.06,2.16A2.37,2.37,0,0,1,52,52.81a2.15,2.15,0,0,1-.34,1.07,2,2,0,0,1-.7.69l.07.15.87,1.8Z"/><path class="fe79b447-b549-436d-bff0-675dd208db42" d="M50.22,65.12v-4H45.11v5.36A29,29,0,0,1,50.22,65.12Z"/></g></g></svg>