<svg xmlns="http://www.w3.org/2000/svg" viewBox="0 0 16.75 10.05"><defs><style>.a3f7a31d-54d2-4528-8ba3-7dc253cbe33d{fill:#fff;}</style></defs><g id="ffc48407-eb7c-4f09-91d1-d14aad61efec" data-name="Layer 2"><g id="bf4adada-ffe2-4afe-895c-50e9f0aa46a5" data-name="Layer 1"><path class="a3f7a31d-54d2-4528-8ba3-7dc253cbe33d" d="M15.63,3.35c1.12-.28,1.12-1.12,1.12-1.12H14A7.17,7.17,0,0,0,8.38,0,7.19,7.19,0,0,0,2.79,2.23H0s0,.84,1.12,1.12A7.81,7.81,0,0,0,.49,4.41,4.17,4.17,0,0,0,0,6.14a3.74,3.74,0,0,0,3.91,3.91A4.52,4.52,0,0,0,7.26,8.38l1.12,1.67L9.49,8.38a4.54,4.54,0,0,0,3.35,1.67,3.73,3.73,0,0,0,3.91-3.91,4.05,4.05,0,0,0-.45-1.65A6.6,6.6,0,0,0,15.63,3.35ZM3.91,8.93A2.78,2.78,0,0,1,2.05,4.07a2.76,2.76,0,0,1,3.07-.44,2.79,2.79,0,0,1-1.21,5.3ZM8.38,7.82a6.32,6.32,0,0,0-1.8-4.29,3.89,3.89,0,0,0-2.67-1.3A6.69,6.69,0,0,1,8.38.56a6.67,6.67,0,0,1,4.46,1.67,3.88,3.88,0,0,0-2.68,1.31A6.34,6.34,0,0,0,8.38,7.82Zm4.46,1.11a2.78,2.78,0,0,1-1.26-5.27,2.7,2.7,0,0,1,1.26-.31,2.79,2.79,0,1,1,0,5.58Z"/><path class="a3f7a31d-54d2-4528-8ba3-7dc253cbe33d" d="M12.84,5.58a.56.56,0,1,0,.56.56A.56.56,0,0,0,12.84,5.58Z"/><path class="a3f7a31d-54d2-4528-8ba3-7dc253cbe33d" d="M12.84,4.47a1.68,1.68,0,1,0,1.68,1.67A1.67,1.67,0,0,0,12.84,4.47Zm0,2.79A1.12,1.12,0,1,1,14,6.14,1.12,1.12,0,0,1,12.84,7.26Z"/><path class="a3f7a31d-54d2-4528-8ba3-7dc253cbe33d" d="M3.91,5.58a.56.56,0,1,0,.56.56A.56.56,0,0,0,3.91,5.58Z"/><path class="a3f7a31d-54d2-4528-8ba3-7dc253cbe33d" d="M3.91,4.47A1.68,1.68,0,1,0,5.58,6.14,1.68,1.68,0,0,0,3.91,4.47Zm0,2.79A1.12,1.12,0,1,1,5,6.14,1.12,1.12,0,0,1,3.91,7.26Z"/></g></g></svg>